<svg width="426" height="112" viewBox="0 0 426 112" fill="none" xmlns="http://www.w3.org/2000/svg">
<rect width="426" height="112" fill="#F5F5F5"/>
<path d="M424.16 96.3766C425.184 98.5099 425.738 100.345 425.824 101.881C425.909 103.331 425.44 104.654 424.416 105.849C423.477 106.958 421.898 108.067 419.68 109.177C416.266 110.798 413.621 111.267 411.744 110.585C409.866 109.987 408.117 107.982 406.496 104.569L381.408 52.0886L356.448 104.569C354.741 107.897 352.949 109.859 351.072 110.457C349.28 111.139 346.677 110.67 343.264 109.049C341.045 108.025 339.424 106.958 338.4 105.849C337.461 104.654 337.034 103.289 337.12 101.753C337.205 100.131 337.802 98.2539 338.912 96.1206L372.576 26.1046C373.429 24.3979 374.666 23.0326 376.288 22.0086C377.994 20.9846 379.744 20.4726 381.536 20.4726C382.816 20.4726 384.01 20.7286 385.12 21.2406C386.229 21.6673 387.21 22.3073 388.064 23.1606C389.002 24.0139 389.77 25.0379 390.368 26.2326L424.16 96.3766ZM359.904 89.0806L367.84 72.5686H395.104L403.04 89.0806H359.904Z" fill="#2F2AD4"/>
<path d="M333.338 19.8318C334.959 19.6612 336.965 20.003 339.354 20.8563C341.914 21.7948 343.706 22.7768 344.73 23.8006C345.754 24.8245 346.266 26.1047 346.267 27.6404C346.352 29.091 346.053 31.0111 345.37 33.4002L321.307 103.16C321.136 103.672 320.752 104.483 320.154 105.593C319.642 106.616 318.746 107.555 317.466 108.408C316.271 109.261 314.479 109.688 312.09 109.688C309.786 109.688 307.951 109.176 306.586 108.152C305.221 107.128 304.24 106.061 303.643 104.952C303.131 103.758 302.789 102.947 302.618 102.52L287.898 54.7762L273.179 102.52C273.093 102.947 272.751 103.757 272.154 104.952C271.557 106.147 270.575 107.256 269.21 108.28C267.93 109.219 266.095 109.688 263.706 109.688C261.488 109.688 259.738 109.261 258.458 108.408C257.179 107.555 256.24 106.574 255.643 105.465C255.131 104.356 254.789 103.587 254.618 103.16L249.185 87.408L259.368 58.1951L264.858 74.4881L278.298 27.6404C278.554 26.7871 278.938 25.8053 279.45 24.6961C280.047 23.5869 280.987 22.605 282.267 21.7518C283.546 20.8987 285.339 20.4725 287.643 20.4725C290.287 20.4725 292.25 20.9422 293.53 21.8807C294.895 22.8191 295.835 23.8429 296.347 24.952C296.859 26.061 297.242 26.9152 297.498 27.5125L311.066 74.7439L326.938 27.1287C327.706 24.7398 328.559 22.99 329.498 21.8807C330.522 20.6862 331.802 20.0026 333.338 19.8318ZM257.124 51.5369L256.03 54.6746L257.119 51.5203L257.124 51.5369Z" fill="#2F2AD4"/>
<path d="M351.434 35.402L320.919 24.6801C320.084 24.3866 319.487 23.8455 319.128 23.057C318.769 22.2684 318.728 21.4814 319.007 20.6958C319.093 20.4501 319.22 20.2045 319.388 19.9588C319.556 19.7131 319.758 19.4946 319.993 19.3034L343.693 0.635717C344.143 0.297066 344.629 0.094379 345.149 0.0276643C345.669 -0.0390504 346.175 0.0149048 346.665 0.189526C347.156 0.364148 347.584 0.63824 347.95 1.0118C348.315 1.38537 348.567 1.84704 348.705 2.39681L355.52 31.7864C355.581 32.0839 355.601 32.3804 355.581 32.6759C355.562 32.9714 355.507 33.2427 355.418 33.4896C355.142 34.2759 354.617 34.8643 353.844 35.2551C353.071 35.6459 352.267 35.6948 351.434 35.402Z" fill="#2F2AD4"/>
<path d="M181.707 109.689C179.488 109.689 177.739 109.262 176.459 108.409C175.179 107.555 174.24 106.574 173.643 105.465C173.131 104.355 172.789 103.587 172.619 103.161L148.555 33.4006C147.445 29.8166 147.275 27.1713 148.043 25.4646C148.811 23.6726 151.029 22.1792 154.699 20.9846C157.088 20.2166 159.008 19.8753 160.459 19.9606C161.995 20.0459 163.232 20.6433 164.171 21.7526C165.195 22.8619 166.091 24.6112 166.859 27.0006L182.859 74.4886L196.299 27.6406C196.555 26.7873 196.939 25.8059 197.451 24.6966C198.048 23.5873 198.987 22.6059 200.267 21.7526C201.547 20.8993 203.339 20.4726 205.643 20.4726C208.288 20.4726 210.251 20.9419 211.531 21.8806C212.896 22.8193 213.835 23.8433 214.347 24.9526C214.859 26.0619 215.243 26.9153 215.499 27.5126L229.067 74.7446L244.939 27.1286C245.707 24.7393 246.56 22.9899 247.499 21.8806C248.523 20.6859 249.803 20.0033 251.339 19.8326C252.96 19.6619 254.965 20.0033 257.355 20.8566C259.915 21.7952 261.707 22.7766 262.731 23.8006C263.755 24.8246 264.267 26.1046 264.267 27.6406C264.352 29.0913 264.053 31.0113 263.371 33.4006L239.307 103.161C239.136 103.673 238.752 104.483 238.155 105.593C237.643 106.617 236.747 107.555 235.467 108.409C234.272 109.262 232.48 109.689 230.091 109.689C227.787 109.689 225.952 109.177 224.587 108.153C223.221 107.129 222.24 106.062 221.643 104.953C221.131 103.758 220.789 102.947 220.619 102.521L205.899 54.7766L191.179 102.521C191.093 102.947 190.752 103.758 190.155 104.953C189.557 106.147 188.576 107.257 187.211 108.281C185.931 109.219 184.096 109.689 181.707 109.689Z" fill="#2F2AD4"/>
<path d="M82.9737 109.945C79.9017 109.945 77.683 109.518 76.3177 108.665C74.9523 107.726 74.099 106.489 73.7577 104.953C73.5017 103.417 73.3737 101.838 73.3737 100.217V30.2006C73.3737 26.4459 74.099 23.8859 75.5497 22.5206C77.0003 21.1553 79.603 20.4726 83.3577 20.4726H131.742C133.448 20.4726 135.027 20.6433 136.478 20.9846C137.928 21.2406 139.123 22.0513 140.062 23.4166C141 24.7819 141.47 27.0859 141.47 30.3286C141.47 33.4006 141 35.6193 140.062 36.9846C139.123 38.3499 137.886 39.2033 136.35 39.5446C134.899 39.8006 133.32 39.9286 131.614 39.9286H92.8297V56.4406H119.198C120.904 56.4406 122.398 56.5686 123.678 56.8246C125.043 57.0806 126.11 57.8059 126.878 59.0006C127.646 60.1953 128.03 62.2006 128.03 65.0166C128.03 67.6619 127.646 69.5819 126.878 70.7766C126.11 71.9713 125.043 72.6966 123.678 72.9526C122.312 73.2086 120.734 73.3366 118.942 73.3366H92.8297V90.4886H131.742C133.448 90.4886 135.027 90.6593 136.478 91.0006C137.928 91.3419 139.123 92.1953 140.062 93.5606C141 94.8406 141.47 97.1019 141.47 100.345C141.47 103.417 141 105.635 140.062 107.001C139.123 108.366 137.886 109.177 136.35 109.433C134.899 109.774 133.32 109.945 131.614 109.945H82.9737Z" fill="#2F2AD4"/>
<path d="M31.6587 111.225C27.136 111.225 23.168 110.67 19.7547 109.561C16.4267 108.451 13.568 107.129 11.1787 105.593C8.87467 103.971 7.04 102.393 5.67467 100.857C4.30933 99.3206 3.37067 98.1686 2.85867 97.4006C1.408 95.5233 0.512 93.9019 0.170667 92.5366C-0.170667 91.0859 5.96046e-08 89.6353 0.682667 88.1846C1.45067 86.7339 2.73067 85.1553 4.52267 83.4486C6.31467 81.9126 7.97867 81.1019 9.51467 81.0166C11.136 80.8459 12.7147 81.2299 14.2507 82.1686C15.7867 83.1073 17.28 84.4299 18.7307 86.1366C20.7787 88.6113 22.784 90.3606 24.7467 91.3846C26.7947 92.3233 28.928 92.7926 31.1467 92.7926C33.9627 92.7926 36.352 92.4513 38.3147 91.7686C40.2773 91.0859 41.7707 90.0193 42.7947 88.5686C43.8187 87.0326 44.3307 85.1126 44.3307 82.8086C44.3307 80.9313 43.6053 79.4379 42.1547 78.3286C40.7893 77.1339 38.912 76.1099 36.5227 75.2566C34.2187 74.4033 31.616 73.5926 28.7147 72.8246C25.8987 71.9713 23.0827 70.9899 20.2667 69.8806C18.304 69.1979 16.4267 68.3446 14.6347 67.3206C12.8427 66.2966 11.136 65.1446 9.51467 63.8646C7.89333 62.5846 6.48533 61.0486 5.29067 59.2566C4.18133 57.4646 3.28533 55.4166 2.60267 53.1126C2.00533 50.8086 1.70667 48.1633 1.70667 45.1766C1.70667 40.1419 2.944 35.6619 5.41867 31.7366C7.89333 27.8113 11.3067 24.7393 15.6587 22.5206C20.096 20.2166 25.1733 19.0646 30.8907 19.0646C34.7307 19.0646 38.0587 19.4059 40.8747 20.0886C43.776 20.7713 46.208 21.5819 48.1707 22.5206C50.1333 23.4593 51.6693 24.3979 52.7787 25.3366C53.9733 26.1899 54.784 26.8726 55.2107 27.3846C57.6 29.6033 58.9227 31.5233 59.1787 33.1446C59.4347 34.6806 58.5387 36.8566 56.4907 39.6726C54.3573 42.6593 52.224 44.3233 50.0907 44.6646C48.0427 45.0059 45.696 44.2806 43.0507 42.4886C42.0267 41.5499 41.0027 40.6966 39.9787 39.9286C38.9547 39.1606 37.7173 38.5633 36.2667 38.1366C34.9013 37.6246 33.0667 37.3686 30.7627 37.3686C29.3973 37.3686 28.1173 37.5819 26.9227 38.0086C25.728 38.3499 24.704 38.8619 23.8507 39.5446C22.9973 40.2273 22.3147 41.0806 21.8027 42.1046C21.2907 43.0433 21.0347 44.1099 21.0347 45.3046C21.0347 47.2673 21.6747 48.8459 22.9547 50.0406C24.32 51.2353 26.0693 52.2166 28.2027 52.9846C30.4213 53.6673 32.8533 54.3499 35.4987 55.0326C38.2293 55.6299 41.0027 56.3553 43.8187 57.2086C46.3787 58.0619 48.8533 59.1286 51.2427 60.4086C53.632 61.6033 55.7653 63.1393 57.6427 65.0166C59.52 66.8939 61.0133 69.2406 62.1227 72.0566C63.3173 74.8726 63.9147 78.3286 63.9147 82.4246C63.9147 87.5446 62.9333 91.9393 60.9707 95.6086C59.008 99.2779 56.4053 102.265 53.1627 104.569C49.92 106.873 46.4213 108.537 42.6667 109.561C38.912 110.67 35.2427 111.225 31.6587 111.225Z" fill="#2F2AD4"/>
</svg>
